<svg width="116" height="116" viewBox="0 0 116 116" fill="none" xmlns="http://www.w3.org/2000/svg">
<path d="M97.93 62.22C100.183 62.22 102.01 60.3933 102.01 58.14C102.01 55.8867 100.183 54.06 97.93 54.06C95.6767 54.06 93.85 55.8867 93.85 58.14C93.85 60.3933 95.6767 62.22 97.93 62.22Z" stroke="#54C0E8" stroke-width="4" stroke-linecap="round" stroke-linejoin="round"/>
<path d="M25.84 62C25.8397 60.5958 25.4698 59.2164 24.7674 58.0004C24.0651 56.7845 23.055 55.7748 21.8388 55.0729C20.6226 54.371 19.2431 54.0016 17.8389 54.0018C16.4347 54.002 15.0552 54.3718 13.8392 55.074C12.6232 55.7763 11.6135 56.7862 10.9115 58.0024C10.2094 59.2185 9.83992 60.598 9.84 62.0022C9.84008 63.4064 10.2098 64.7859 10.9119 66.002C11.614 67.218 12.6239 68.2279 13.84 68.93V82H22V68.84C23.1735 68.1255 24.1433 67.1209 24.8159 65.9229C25.4884 64.7249 25.8411 63.3739 25.84 62Z" stroke="#54C0E8" stroke-width="4" stroke-linecap="round" stroke-linejoin="round"/>
<path d="M38 66V78H46V66H54V78H62V66H78.4C79.3736 69.7706 81.6889 73.0567 84.912 75.2424C88.1351 77.428 92.0447 78.3631 95.908 77.8725C99.7713 77.3818 103.323 75.4989 105.897 72.5769C108.472 69.6549 109.892 65.8943 109.892 62C109.892 58.1057 108.472 54.3451 105.897 51.423C103.323 48.501 99.7713 46.6182 95.908 46.1275C92.0447 45.6368 88.1351 46.5719 84.912 48.7576C81.6889 50.9432 79.3736 54.2293 78.4 58H36.06C34.9991 58 33.9817 58.4214 33.2316 59.1716C32.4814 59.9217 32.06 60.9391 32.06 62C32.06 63.0608 32.4814 64.0783 33.2316 64.8284C33.9817 65.5786 34.9991 66 36.06 66H38Z" stroke="#54C0E8" stroke-width="4" stroke-linecap="round" stroke-linejoin="round"/>
</svg>
