<svg width="116" height="116" viewBox="0 0 116 116" fill="none" xmlns="http://www.w3.org/2000/svg">
<path d="M110.08 81.9402V74.0002H101.7C101.102 70.3959 99.6899 66.9757 97.57 64.0002L103.5 58.0702L97.89 52.4602L92 58.4502C89.0263 56.3289 85.6049 54.9193 82 54.3302V45.9302H74.07V54.3302C70.486 54.9281 67.0861 56.3373 64.13 58.4502L58.19 52.5102L52.58 58.1202L58.51 64.0502C56.3901 67.0257 54.9776 70.4459 54.38 74.0502H46V81.9902H54.37C54.9542 85.5965 56.3643 89.0189 58.49 91.9902L52.58 97.9002L58.19 103.51L64.09 97.6102C67.062 99.7383 70.4834 101.155 74.09 101.75V110H82V101.66C85.6069 101.066 89.0287 99.6495 92 97.5202L97.91 103.42L103.52 97.8102L97.61 91.9002C99.7316 88.9267 101.141 85.5052 101.73 81.9002L110.08 81.9402Z" stroke="#54C0E8" stroke-width="4" stroke-linecap="round" stroke-linejoin="round"/>
<path d="M78.0401 89.94C84.6509 89.94 90.0101 84.5808 90.0101 77.97C90.0101 71.3592 84.6509 66 78.0401 66C71.4292 66 66.0701 71.3592 66.0701 77.97C66.0701 84.5808 71.4292 89.94 78.0401 89.94Z" stroke="#54C0E8" stroke-width="4" stroke-linecap="round" stroke-linejoin="round"/>
<path d="M53.64 37.7498C54.135 35.2205 54.135 32.6191 53.64 30.0898L61.39 26.8798L58.39 19.5898L50.6 22.7998C49.1637 20.6634 47.3264 18.826 45.19 17.3898L48.41 9.6098L41 6.5498L37.77 14.3398C35.2671 13.8499 32.6929 13.8499 30.19 14.3398L27 6.5498L19.59 9.6098L22.81 17.3998C20.698 18.8285 18.8786 20.6478 17.45 22.7598L9.65998 19.5398L6.59998 26.9298L14.38 30.1498C13.885 32.6758 13.885 35.2738 14.38 37.7998L6.61998 40.9998L9.61998 48.2898L17.37 45.0798C18.8064 47.2217 20.6434 49.0655 22.78 50.5098L19.57 58.2698L27 61.3498L30.21 53.5998C32.7263 54.0899 35.3136 54.0899 37.83 53.5998L41 61.3498L48.39 58.2898L45.19 50.5498C47.3129 49.1114 49.1394 47.2781 50.57 45.1498L58.32 48.3598L61.4 40.9998L53.64 37.7498Z" stroke="#54C0E8" stroke-width="4" stroke-linecap="round" stroke-linejoin="round"/>
<path d="M34 41.9502C38.4183 41.9502 42 38.3685 42 33.9502C42 29.5319 38.4183 25.9502 34 25.9502C29.5817 25.9502 26 29.5319 26 33.9502C26 38.3685 29.5817 41.9502 34 41.9502Z" stroke="#54C0E8" stroke-width="4" stroke-linecap="round" stroke-linejoin="round"/>
</svg>
