<svg width="116" height="116" viewBox="0 0 116 116" fill="none" xmlns="http://www.w3.org/2000/svg">
<path d="M69.9101 57.91C69.9101 54.7513 68.6553 51.7219 66.4217 49.4884C64.1882 47.2548 61.1588 46 58.0001 46C54.8414 46 51.812 47.2548 49.5784 49.4884C47.3449 51.7219 46.0901 54.7513 46.0901 57.91V62.09C46.0901 65.2487 47.3449 68.2781 49.5784 70.5116C51.812 72.7452 54.8414 74 58.0001 74C61.1588 74 64.1882 72.7452 66.4217 70.5116C68.6553 68.2781 69.9101 65.2487 69.9101 62.09V57.91Z" stroke="#54C0E8" stroke-width="4" stroke-linecap="round" stroke-linejoin="round"/>
<path d="M82 90V86C82 82.8174 80.7357 79.7652 78.4853 77.5147C76.2348 75.2643 73.1826 74 70 74H46C42.8174 74 39.7652 75.2643 37.5147 77.5147C35.2643 79.7652 34 82.8174 34 86V90" stroke="#54C0E8" stroke-width="4" stroke-linecap="round" stroke-linejoin="round"/>
<path d="M113.96 63.0401L58 7.09009L2.04004 63.0401" stroke="#54C0E8" stroke-width="4" stroke-linecap="round" stroke-linejoin="round"/>
<path d="M17.95 47.28V106.05H98.05V47.28" stroke="#54C0E8" stroke-width="4" stroke-linecap="round" stroke-linejoin="round"/>
</svg>
