<?xml version="1.0" encoding="utf-8"?>
<!-- Generator: Adobe Illustrator 26.3.1, SVG Export Plug-In . SVG Version: 6.00 Build 0)  -->
<svg version="1.1" id="Layer_1" xmlns="http://www.w3.org/2000/svg" xmlns:xlink="http://www.w3.org/1999/xlink" x="0px" y="0px"
	 viewBox="0 0 594 195" style="enable-background:new 0 0 594 195;" xml:space="preserve">
<style type="text/css">
	.st0{fill:#0033A1;}
</style>
<g>
	<g>
		<path class="st0" d="M540.8,113.9c1.7,0,3,1.3,3,3s-1.3,3-3,3s-3-1.3-3-3C537.8,115.1,539,113.9,540.8,113.9z M540.8,114.3
			c-1.4,0-2.5,1.1-2.5,2.5s1.1,2.5,2.5,2.5s2.5-1.1,2.5-2.5S542.2,114.3,540.8,114.3z M541.4,118.5l-1.1-1.4v1.4h-0.5v-3.3h0.6
			c0.3,0,1.3,0,1.3,0.9c0,0.5-0.4,0.9-0.9,0.9l1.1,1.4L541.4,118.5L541.4,118.5z M540.3,116.7h0.2c0.3,0,0.7,0,0.7-0.5
			s-0.4-0.5-0.7-0.5h-0.2V116.7z"/>
	</g>
	<g>
		<path class="st0" d="M54.6,56.7v63.1h-6.3V56.7H54.6z"/>
		<path class="st0" d="M66.3,81.8c2-3.8,4.9-6.8,8.4-8.9c3.6-2.1,7.6-3.1,12.2-3.1c4.3,0,8.3,1.1,11.7,3.2c3.5,2.1,6.1,4.8,7.7,8.2
			V53h6.3v66.9h-6.3v-11c-1.5,3.4-4,6.2-7.4,8.4c-3.4,2.2-7.5,3.3-12.1,3.3c-4.5,0-8.6-1.1-12.2-3.2s-6.4-5.1-8.4-8.9
			c-2-3.9-3-8.3-3-13.4C63.2,90,64.3,85.6,66.3,81.8z M103.9,84.7c-1.6-3-3.8-5.3-6.6-7c-2.8-1.6-5.9-2.4-9.3-2.4
			c-3.5,0-6.6,0.8-9.4,2.3c-2.8,1.6-5,3.8-6.5,6.8c-1.6,3-2.4,6.5-2.4,10.6c0,4,0.8,7.6,2.4,10.6s3.8,5.4,6.5,7
			c2.8,1.6,5.9,2.4,9.4,2.4c3.4,0,6.5-0.8,9.3-2.4s5-3.9,6.6-7c1.6-3,2.4-6.5,2.4-10.5S105.5,87.7,103.9,84.7z"/>
		<path class="st0" d="M168.8,97.6h-40.9c0.2,3.7,1.1,6.9,2.7,9.6s3.8,4.7,6.4,6c2.6,1.4,5.5,2,8.7,2c4.1,0,7.5-1,10.3-3
			s4.7-4.7,5.6-8h6.7c-1.2,4.8-3.8,8.7-7.7,11.8c-3.9,3-8.9,4.6-14.9,4.6c-4.6,0-8.8-1-12.5-3.1s-6.5-5-8.6-8.9
			c-2.1-3.8-3.1-8.3-3.1-13.4s1-9.6,3.1-13.5c2-3.9,4.9-6.8,8.6-8.9c3.7-2,7.9-3.1,12.6-3.1s8.8,1,12.3,3.1c3.5,2,6.2,4.8,8.1,8.3
			c1.9,3.5,2.8,7.3,2.8,11.5C168.9,94.8,168.9,96.5,168.8,97.6z M160.3,83.1c-1.5-2.6-3.6-4.5-6.3-5.9c-2.7-1.3-5.5-2-8.7-2
			c-4.7,0-8.7,1.5-12,4.5s-5.1,7.3-5.5,12.7h34.7C162.6,88.8,161.9,85.7,160.3,83.1z"/>
		<path class="st0" d="M215.3,75.1c3.7,3.6,5.6,8.9,5.6,15.9v28.9h-6.2V91.7c0-5.4-1.3-9.5-4-12.3s-6.3-4.2-11-4.2
			c-4.8,0-8.6,1.5-11.4,4.5c-2.8,3-4.2,7.4-4.2,13.3v26.9h-6.3V70.5h6.3v8.4c1.6-3,3.8-5.3,6.8-6.9s6.3-2.4,10-2.4
			C206.7,69.6,211.6,71.5,215.3,75.1z"/>
		<path class="st0" d="M240.3,75.9v30.6c0,3,0.6,5.1,1.7,6.2c1.1,1.1,3.2,1.7,6.1,1.7h5.8v5.4h-6.8c-4.5,0-7.8-1-9.9-3.1
			c-2.2-2.1-3.3-5.5-3.3-10.3V75.9H227v-5.3h6.9V58.2h6.4v12.4h13.6v5.3H240.3z"/>
		<path class="st0" d="M261.4,59.9c-0.9-0.9-1.4-2-1.4-3.3s0.5-2.4,1.4-3.3c0.9-0.9,2-1.3,3.3-1.3s2.3,0.4,3.3,1.3
			c0.9,0.9,1.4,2,1.4,3.3s-0.5,2.4-1.4,3.3c-0.9,0.9-2,1.4-3.3,1.4S262.3,60.8,261.4,59.9z M267.8,70.5v49.3h-6.3V70.5H267.8z"/>
		<path class="st0" d="M287.6,75.9v30.6c0,3,0.6,5.1,1.7,6.2s3.2,1.7,6.1,1.7h5.8v5.4h-6.8c-4.5,0-7.8-1-9.9-3.1
			c-2.2-2.1-3.3-5.5-3.3-10.3V75.9h-6.9v-5.3h6.9V58.2h6.4v12.4h13.6v5.3H287.6z"/>
		<path class="st0" d="M349.3,70.5L320,143h-6.6l9.6-23.5l-20.2-49.1h7l16.8,42.1l16.3-42.1L349.3,70.5L349.3,70.5z"/>
		<path class="st0" d="M410.2,119.9h-15.4L369,80.7v39.1h-15.4V56.4H369l25.8,39.3V56.4h15.4L410.2,119.9L410.2,119.9z"/>
		<path class="st0" d="M428.3,117.4c-3.9-2.1-7-5.1-9.3-9s-3.4-8.5-3.4-13.7S416.7,85,419,81c2.3-3.9,5.4-7,9.4-9.1
			s8.4-3.2,13.4-3.2c4.9,0,9.4,1.1,13.4,3.2s7.1,5.1,9.4,9.1c2.3,3.9,3.4,8.5,3.4,13.7s-1.2,9.7-3.5,13.7c-2.3,3.9-5.5,7-9.5,9.1
			s-8.5,3.2-13.4,3.2C436.6,120.6,432.2,119.5,428.3,117.4z M449.1,104c2.1-2.2,3.1-5.3,3.1-9.3s-1-7.1-3-9.3
			c-2-2.2-4.5-3.3-7.5-3.3s-5.5,1.1-7.5,3.2s-3,5.3-3,9.4c0,4,1,7.1,2.9,9.3c2,2.2,4.4,3.3,7.4,3.3
			C444.5,107.2,447.1,106.1,449.1,104z"/>
		<path class="st0" d="M545.7,69.4l-13.6,50.4H515l-8-32.7l-8.2,32.7h-17l-13.7-50.4h15.4l7.1,36l8.5-36h16.4l8.6,35.9l7-35.9H545.7
			z"/>
	</g>
</g>
</svg>
